<svg width="80" height="80" viewBox="0 0 80 80" fill="none" xmlns="http://www.w3.org/2000/svg">
<g id="Group">
<path id="Vector" fill-rule="evenodd" clip-rule="evenodd" d="M-0.000976562 8C-0.000976562 5.87827 0.841905 3.84344 2.34224 2.34315C3.84258 0.842855 5.87748 0 7.99928 0L72.0013 0C74.1231 0 76.158 0.842855 77.6583 2.34315C79.1587 3.84344 80.0015 5.87827 80.0015 8V29.3333L75.7347 26.128C71.1129 22.6617 65.3957 20.9788 59.6329 21.3884C53.8701 21.7979 48.4484 24.2724 44.3632 28.3574C40.278 32.4425 37.8035 37.864 37.3939 43.6267C36.9844 49.3893 38.6673 55.1063 42.1337 59.728L42.667 60.4427V80H7.99928C5.87748 80 3.84258 79.1571 2.34224 77.6569C0.841905 76.1566 -0.000976562 74.1217 -0.000976562 72L-0.000976562 8ZM42.667 26.6667H15.9995V21.3333H42.667V26.6667ZM15.9995 42.6667H32V37.3333H15.9995V42.6667Z" fill="#1A3870"/>
<path id="Vector_2" fill-rule="evenodd" clip-rule="evenodd" d="M61.3311 26.6664C57.6547 26.6659 54.06 27.7509 50.9979 29.7854C47.9358 31.8198 45.5426 34.7131 44.1186 38.1023C42.6945 41.4915 42.3029 45.2258 42.9929 48.8367C43.6829 52.4476 45.4239 55.7744 47.9973 58.3998V77.3331C47.9973 77.8283 48.1352 78.3138 48.3956 78.7351C48.656 79.1563 49.0285 79.4968 49.4715 79.7182C49.9144 79.9397 50.4103 80.0335 50.9036 79.989C51.3968 79.9445 51.8679 79.7636 52.2641 79.4664L61.3311 72.6664L70.398 79.4664C70.7942 79.7636 71.2653 79.9445 71.7586 79.989C72.2518 80.0335 72.7477 79.9397 73.1907 79.7182C73.6336 79.4968 74.0062 79.1563 74.2665 78.7351C74.5269 78.3138 74.6648 77.8283 74.6648 77.3331V58.3998C77.2383 55.7744 78.9792 52.4476 79.6692 48.8367C80.3593 45.2258 79.9677 41.4915 78.5436 38.1023C77.1195 34.7131 74.7263 31.8198 71.6642 29.7854C68.6021 27.7509 65.0074 26.6659 61.3311 26.6664ZM53.3308 71.9998V62.2024C55.7576 63.3544 58.467 63.9998 61.3311 63.9998C64.1952 63.9998 66.9046 63.3598 69.3313 62.2024V71.9998L62.9311 67.1998C62.4695 66.8536 61.9081 66.6664 61.3311 66.6664C60.7541 66.6664 60.1926 66.8536 59.731 67.1998L53.3308 71.9998Z" fill="#1A3870"/>
</g>
</svg>
