<svg width="99" height="78" viewBox="0 0 99 78" fill="none" xmlns="http://www.w3.org/2000/svg">
<path id="&#226;&#128;&#157;" d="M2.70529 77.52L17.7533 22.8L22.7693 43.548C16.2333 43.548 10.8373 41.648 6.58129 37.848C2.47729 33.896 0.425293 28.576 0.425293 21.888C0.425293 15.352 2.55329 10.108 6.80929 6.15601C11.0653 2.052 16.3093 0 22.5413 0C28.9253 0 34.1693 2.052 38.2733 6.15601C42.3773 10.108 44.4293 15.352 44.4293 21.888C44.4293 23.864 44.2773 25.84 43.9733 27.816C43.8213 29.64 43.2893 31.844 42.3773 34.428C41.6173 37.012 40.3253 40.432 38.5013 44.688L25.2773 77.52H2.70529ZM56.5133 77.52L71.5613 22.8L76.5773 43.548C70.0413 43.548 64.6453 41.648 60.3893 37.848C56.2853 33.896 54.2333 28.576 54.2333 21.888C54.2333 15.352 56.3613 10.108 60.6173 6.15601C64.8733 2.052 70.1173 0 76.3493 0C82.7333 0 87.9773 2.052 92.0813 6.15601C96.1853 10.108 98.2373 15.352 98.2373 21.888C98.2373 23.864 98.0853 25.84 97.7813 27.816C97.6293 29.64 97.0973 31.844 96.1853 34.428C95.4253 37.012 94.1333 40.432 92.3093 44.688L79.0853 77.52H56.5133Z" fill="#DB0A40"/>
</svg>
