<svg width="98" height="79" viewBox="0 0 98 79" fill="none" xmlns="http://www.w3.org/2000/svg">
<path id="&#226;&#128;&#156;" d="M42.1493 0.824219L27.1013 55.5442L22.0853 35.0242C28.6213 35.0242 33.9413 36.9242 38.0453 40.7242C42.1493 44.5242 44.2013 49.7682 44.2013 56.4562C44.2013 62.9922 42.0733 68.3122 37.8173 72.4162C33.7133 76.3682 28.5453 78.3442 22.3133 78.3442C15.9293 78.3442 10.6093 76.3682 6.35327 72.4162C2.24927 68.3122 0.197266 62.9922 0.197266 56.4562C0.197266 54.4802 0.349265 52.5802 0.653265 50.7562C0.957265 48.7802 1.56527 46.5002 2.47727 43.9162C3.38927 41.3322 4.68127 37.9122 6.35327 33.6562L19.5773 0.824219H42.1493ZM95.9573 0.824219L80.9093 55.5442L75.8933 35.0242C82.4293 35.0242 87.7493 36.9242 91.8533 40.7242C95.9573 44.5242 98.0093 49.7682 98.0093 56.4562C98.0093 62.9922 95.8813 68.3122 91.6253 72.4162C87.5213 76.3682 82.3533 78.3442 76.1213 78.3442C69.7373 78.3442 64.4173 76.3682 60.1613 72.4162C56.0573 68.3122 54.0053 62.9922 54.0053 56.4562C54.0053 54.4802 54.1573 52.5802 54.4613 50.7562C54.7653 48.7802 55.3733 46.5002 56.2853 43.9162C57.1973 41.3322 58.4893 37.9122 60.1613 33.6562L73.3853 0.824219H95.9573Z" fill="#DB0A40"/>
</svg>
