<svg width="112" height="112" viewBox="0 0 112 112" fill="none" xmlns="http://www.w3.org/2000/svg">
<g id="Group 19">
<path id="Vector" fill-rule="evenodd" clip-rule="evenodd" d="M0.156738 51.8C1.21613 37.7145 7.55933 24.5497 17.9153 14.9436C28.2712 5.33751 41.8747 -0.000232582 56 7.6009e-09C51.352 7.60091e-09 47.208 2.0384 43.792 5.1576C40.404 8.26 37.5424 12.5944 35.224 17.7128C32.8944 22.8648 31.08 28.8904 29.8536 35.4256C28.8589 40.8326 28.2637 46.3056 28.0728 51.8H0.156738ZM0.156738 60.2H28.0728C28.2744 65.8112 28.8736 71.3328 29.8536 76.5744C31.0856 83.1096 32.8944 89.1352 35.224 94.2872C37.5424 99.4056 40.404 103.74 43.792 106.842C47.208 109.962 51.352 112 56 112C26.488 112 2.30154 89.1688 0.156738 60.2Z" fill="#1A3870"/>
<path id="Vector_2" d="M56.0006 7.81219C54.4606 7.81219 52.4726 8.4674 50.1598 10.5842C47.8302 12.7178 45.495 16.061 43.4342 20.6138C41.3846 25.1386 39.7214 30.5986 38.579 36.7026C37.683 41.5074 37.123 46.6034 36.9214 51.8002H75.0798C74.8974 46.7339 74.3434 41.6878 73.4222 36.7026C72.2798 30.5986 70.6222 25.1386 68.567 20.6138C66.5062 16.061 64.1766 12.7178 61.847 10.5898C59.5286 8.4674 57.5406 7.81219 56.0006 7.81219ZM38.579 75.2978C39.7214 81.4018 41.3846 86.8618 43.4342 91.3866C45.495 95.9394 47.8302 99.2826 50.1542 101.411C52.4726 103.533 54.4662 104.188 56.0006 104.188C57.5406 104.188 59.5286 103.533 61.8414 101.416C64.1766 99.2826 66.5062 95.9394 68.567 91.3866C70.6166 86.8618 72.2798 81.4018 73.4222 75.2978C74.3238 70.493 74.8838 65.397 75.0798 60.2002H36.9214C37.1174 65.397 37.6774 70.493 38.579 75.2978Z" fill="#1A3870"/>
<path id="Vector_3" d="M56 7.6009e-09C60.6536 7.6009e-09 64.792 2.0384 68.208 5.1576C71.596 8.26 74.4632 12.5944 76.776 17.7128C79.1112 22.8648 80.92 28.8904 82.1464 35.4256C83.1264 40.6672 83.7256 46.1888 83.9272 51.8H111.843C110.784 37.7145 104.441 24.5497 94.0847 14.9436C83.7288 5.33751 70.1253 -0.000232582 56 7.6009e-09ZM82.1464 76.5744C80.92 83.1096 79.1112 89.1352 76.776 94.2872C74.4632 99.4056 71.596 103.74 68.208 106.842C64.792 109.962 60.6536 112 56 112C85.512 112 109.698 89.1688 111.843 60.2H83.9272C83.7363 65.6944 83.1411 71.1674 82.1464 76.5744Z" fill="#1A3870"/>
</g>
</svg>
