<svg width="80" height="80" viewBox="0 0 80 80" fill="none" xmlns="http://www.w3.org/2000/svg">
<path id="Vector" d="M44.112 0C48.6118 0.0119997 50.8957 0.0359991 52.8676 0.0919978L53.6436 0.119997C54.5395 0.151996 55.4235 0.191995 56.4914 0.239994C60.7472 0.439989 63.6511 1.11197 66.1989 2.09995C68.8388 3.11593 71.0627 4.49189 73.2866 6.71184C75.3213 8.71072 76.8951 11.1296 77.8983 13.7997C78.8863 16.3476 79.5583 19.2515 79.7583 23.5114C79.8063 24.5754 79.8462 25.4594 79.8782 26.3594L79.9022 27.1353C79.9622 29.1033 79.9862 31.3872 79.9942 35.8871L79.9982 38.8711V44.1109C80.008 47.0285 79.9773 49.946 79.9062 52.8627L79.8822 53.6387C79.8503 54.5387 79.8102 55.4227 79.7623 56.4866C79.5623 60.7465 78.8823 63.6465 77.8983 66.1984C76.8951 68.8684 75.3213 71.2873 73.2866 73.2862C71.2878 75.321 68.8689 76.8949 66.1989 77.8981C63.6511 78.8861 60.7472 79.5581 56.4914 79.7581L53.6436 79.8781L52.8676 79.9021C50.8957 79.9581 48.6118 79.9861 44.112 79.9941L41.1282 79.9981H35.8925C32.9737 80.0084 30.0549 79.9777 27.1369 79.9061L26.3609 79.8821C25.4114 79.8461 24.4621 79.8048 23.5131 79.7581C19.2573 79.5581 16.3535 78.8861 13.8016 77.8981C11.133 76.8944 8.71561 75.3205 6.71794 73.2862C4.68182 71.2877 3.10655 68.8688 2.10217 66.1984C1.11422 63.6505 0.442253 60.7465 0.242263 56.4866L0.122269 53.6387L0.10227 52.8627C0.0285383 49.9461 -0.00479694 47.0285 0.00227507 44.1109V35.8871C-0.00879595 32.9696 0.020539 30.0521 0.0902709 27.1353L0.118269 26.3594C0.150268 25.4594 0.190266 24.5754 0.238263 23.5114C0.438253 19.2515 1.11022 16.3516 2.09817 13.7997C3.1049 11.1285 4.68293 8.70953 6.72194 6.71184C8.71845 4.67808 11.1345 3.10422 13.8016 2.09995C16.3535 1.11197 19.2533 0.439989 23.5131 0.239994C24.577 0.191995 25.465 0.151996 26.3609 0.119997L27.1369 0.0959974C30.0535 0.0249302 32.971 -0.00573865 35.8885 0.00399961L44.112 0ZM40.0003 19.9995C34.6962 19.9995 29.6094 22.1066 25.8588 25.8572C22.1083 29.6079 20.0013 34.6948 20.0013 39.999C20.0013 45.3032 22.1083 50.3902 25.8588 54.1408C29.6094 57.8915 34.6962 59.9985 40.0003 59.9985C45.3043 59.9985 50.3911 57.8915 54.1417 54.1408C57.8922 50.3902 59.9992 45.3032 59.9992 39.999C59.9992 34.6948 57.8922 29.6079 54.1417 25.8572C50.3911 22.1066 45.3043 19.9995 40.0003 19.9995ZM40.0003 27.9993C41.576 27.9991 43.1364 28.3092 44.5924 28.912C46.0483 29.5148 47.3713 30.3985 48.4857 31.5125C49.6001 32.6266 50.4842 33.9493 51.0875 35.4051C51.6908 36.8609 52.0014 38.4212 52.0017 39.997C52.0019 41.5729 51.6918 43.1333 51.089 44.5893C50.4862 46.0452 49.6026 47.3682 48.4885 48.4827C47.3745 49.5972 46.0518 50.4813 44.5961 51.0846C43.1403 51.6878 41.58 51.9985 40.0043 51.9987C36.8218 51.9987 33.7697 50.7345 31.5194 48.4841C29.2691 46.2337 28.0049 43.1816 28.0049 39.999C28.0049 36.8165 29.2691 33.7643 31.5194 31.514C33.7697 29.2636 36.8218 27.9993 40.0043 27.9993M61.0032 13.9997C59.6772 13.9997 58.4055 14.5264 57.4678 15.4641C56.5302 16.4018 56.0034 17.6735 56.0034 18.9995C56.0034 20.3256 56.5302 21.5973 57.4678 22.535C58.4055 23.4726 59.6772 23.9994 61.0032 23.9994C62.3292 23.9994 63.6009 23.4726 64.5386 22.535C65.4762 21.5973 66.0029 20.3256 66.0029 18.9995C66.0029 17.6735 65.4762 16.4018 64.5386 15.4641C63.6009 14.5264 62.3292 13.9997 61.0032 13.9997Z" fill="#1A3870"/>
</svg>
