<svg width="176" height="193" viewBox="0 0 176 193" fill="none" xmlns="http://www.w3.org/2000/svg">
<g id="Group 16">
<path id="Vector 5" d="M82.2233 189.827L7.22333 148.636C3.3852 146.528 0.999998 142.497 0.999998 138.118L0.999994 55.752C0.999994 51.4085 3.34715 47.4041 7.13691 45.2819L82.1369 3.28323C85.7795 1.24344 90.2205 1.24343 93.8631 3.28323L168.863 45.2819C172.653 47.4041 175 51.4085 175 55.752L175 138.118C175 142.497 172.615 146.528 168.777 148.636L93.7767 189.827C90.179 191.803 85.821 191.803 82.2233 189.827Z" fill="#1A3870" stroke="#1A3870" stroke-width="2" stroke-linecap="round" stroke-linejoin="round"/>
<path id="Vector 6" d="M82.1538 177.739L19.1538 142.593C15.3546 140.474 13 136.464 13 132.114L13 61.64C13 57.3252 15.3165 53.3426 19.067 51.2093L82.067 15.3747C85.7456 13.2823 90.2544 13.2823 93.933 15.3747L156.933 51.2093C160.684 53.3426 163 57.3252 163 61.64L163 132.114C163 136.464 160.645 140.474 156.846 142.593L93.8462 177.739C90.2123 179.766 85.7877 179.766 82.1538 177.739Z" stroke="white" stroke-width="2" stroke-linecap="round" stroke-linejoin="round"/>
<path id="Vector" d="M64 97.1333L80 113L112 79" stroke="white" stroke-width="8" stroke-linecap="round" stroke-linejoin="round"/>
</g>
</svg>
