<svg width="108" height="114" viewBox="0 0 108 114" fill="none" xmlns="http://www.w3.org/2000/svg">
<g id="Subtract">
<path fill-rule="evenodd" clip-rule="evenodd" d="M0.947266 13.2333C12.2668 5.6505 32.957 1 53.1169 1C75.0428 1 95.3803 5.6505 107.053 13.2333V54.7594C107.053 84.1102 81.5761 98.272 63.7284 108.193C61.4604 109.454 59.3157 110.646 57.3621 111.792C56.0941 112.581 54.6212 113 53.1169 113C51.6126 113 50.1397 112.581 48.8718 111.792C47.7346 111.132 46.5288 110.445 45.269 109.726C28.1129 99.9444 0.947266 84.4552 0.947266 54.7594V13.2333ZM71.6841 45.2106C71.6841 54.9773 63.7666 62.8948 53.9999 62.8948C44.2332 62.8948 36.3157 54.9773 36.3157 45.2106C36.3157 35.4439 44.2332 27.5264 53.9999 27.5264C63.7666 27.5264 71.6841 35.4439 71.6841 45.2106Z" fill="#1A3870"/>
<path d="M0.947266 13.2333L0.808128 13.0256L0.697266 13.0999V13.2333H0.947266ZM107.053 13.2333H107.303V13.0976L107.189 13.0237L107.053 13.2333ZM63.7284 108.193L63.8498 108.412L63.7284 108.193ZM57.3621 111.792L57.2355 111.577L57.23 111.58L57.3621 111.792ZM48.8718 111.792L49.0039 111.58L48.9973 111.576L48.8718 111.792ZM45.269 109.726L45.1452 109.944L45.269 109.726ZM53.1169 1V0.75C32.9335 0.75 12.1862 5.40361 0.808128 13.0256L0.947266 13.2333L1.0864 13.441C12.3474 5.89739 32.9805 1.25 53.1169 1.25V1ZM107.053 13.2333L107.189 13.0237C95.4592 5.40363 75.0663 0.75 53.1169 0.75V1V1.25C75.0193 1.25 95.3014 5.89736 106.916 13.443L107.053 13.2333ZM107.053 54.7594H107.303V13.2333H107.053H106.803V54.7594H107.053ZM63.7284 108.193L63.8498 108.412C72.7692 103.454 83.6305 97.4177 92.2586 88.9407C100.894 80.4568 107.303 69.5178 107.303 54.7594H107.053H106.803C106.803 69.3518 100.473 80.1692 91.9081 88.5841C83.3361 97.006 72.5352 103.012 63.6069 107.975L63.7284 108.193ZM57.3621 111.792L57.4886 112.008C59.4392 110.863 61.5813 109.673 63.8498 108.412L63.7284 108.193L63.6069 107.975C61.3396 109.235 59.1922 110.429 57.2355 111.577L57.3621 111.792ZM53.1169 113V113.25C54.6675 113.25 56.1862 112.818 57.4941 112.005L57.3621 111.792L57.23 111.58C56.002 112.344 54.5749 112.75 53.1169 112.75V113ZM48.8718 111.792L48.7397 112.005C50.0476 112.818 51.5663 113.25 53.1169 113.25V113V112.75C51.6589 112.75 50.2318 112.344 49.0038 111.58L48.8718 111.792ZM45.269 109.726L45.1452 109.944C46.4052 110.662 47.6101 111.349 48.7462 112.009L48.8718 111.792L48.9973 111.576C47.8591 110.915 46.6525 110.227 45.3928 109.509L45.269 109.726ZM0.947266 54.7594H0.697266C0.697266 69.6934 7.53113 81.05 16.4991 89.8886C25.4618 98.7221 36.5708 105.055 45.1452 109.944L45.269 109.726L45.3928 109.509C36.8112 104.616 25.7592 98.3131 16.8501 89.5325C7.94624 80.7571 1.19727 69.5213 1.19727 54.7594H0.947266ZM0.947266 13.2333H0.697266V54.7594H0.947266H1.19727V13.2333H0.947266ZM53.9999 62.8948V63.1448C63.9047 63.1448 71.9341 55.1154 71.9341 45.2106H71.6841H71.4341C71.4341 54.8393 63.6285 62.6448 53.9999 62.6448V62.8948ZM36.3157 45.2106H36.0657C36.0657 55.1154 44.0951 63.1448 53.9999 63.1448V62.8948V62.6448C44.3712 62.6448 36.5657 54.8393 36.5657 45.2106H36.3157ZM53.9999 27.5264V27.2764C44.0951 27.2764 36.0657 35.3058 36.0657 45.2106H36.3157H36.5657C36.5657 35.582 44.3712 27.7764 53.9999 27.7764V27.5264ZM71.6841 45.2106H71.9341C71.9341 35.3058 63.9047 27.2764 53.9999 27.2764V27.5264V27.7764C63.6285 27.7764 71.4341 35.582 71.4341 45.2106H71.6841Z" fill="#1A3870"/>
</g>
</svg>
